<svg xmlns="http://www.w3.org/2000/svg" width="256" height="256" viewBox="0 0 256 256" role="img" aria-labelledby="title desc">
  <title id="title">Pulso logo</title>
  <desc id="desc">A heart with an industrial pulse line through it.</desc>
  <rect width="256" height="256" rx="48" fill="#0A0C10"/>
  <path d="M128 210S51 163 29 112C12 72 37 35 74 35c21 0 36 11 44 25 4 7 6 11 10 11s6-4 10-11c8-14 23-25 44-25 37 0 62 37 45 77-22 51-99 98-99 98Z" fill="#2a1408" stroke="#f97316" stroke-width="12" stroke-linejoin="round"/>
  <path d="M36 128h40l16-32 26 64 23-48h26l13-24 18 40h22" fill="none" stroke="#ffffff" stroke-width="14" stroke-linecap="round" stroke-linejoin="round"/>
  <path d="M36 128h40l16-32 26 64 23-48h26l13-24 18 40h22" fill="none" stroke="#f97316" stroke-width="5" stroke-linecap="round" stroke-linejoin="round"/>
</svg>
